<svg xmlns="http://www.w3.org/2000/svg" viewBox="546 70 912 360" role="img" aria-label="One wire per bar, the beads gather around the price; copper marks the entry, the exit and a third signal">
<line x1="560.0" y1="78" x2="560.0" y2="422" stroke="#2c2f36" stroke-width="1.6"/>
<line x1="586.0" y1="78" x2="586.0" y2="422" stroke="#2c2f36" stroke-width="1.6"/>
<line x1="612.0" y1="78" x2="612.0" y2="422" stroke="#2c2f36" stroke-width="1.6"/>
<line x1="638.0" y1="78" x2="638.0" y2="422" stroke="#2c2f36" stroke-width="1.6"/>
<line x1="664.0" y1="78" x2="664.0" y2="422" stroke="#2c2f36" stroke-width="1.6"/>
<line x1="690.0" y1="78" x2="690.0" y2="422" stroke="#2c2f36" stroke-width="1.6"/>
<line x1="716.0" y1="78" x2="716.0" y2="422" stroke="#2c2f36" stroke-width="1.6"/>
<line x1="742.0" y1="78" x2="742.0" y2="422" stroke="#2c2f36" stroke-width="1.6"/>
<line x1="768.0" y1="78" x2="768.0" y2="422" stroke="#2c2f36" stroke-width="1.6"/>
<line x1="794.0" y1="78" x2="794.0" y2="422" stroke="#2c2f36" stroke-width="1.6"/>
<line x1="820.0" y1="78" x2="820.0" y2="422" stroke="#2c2f36" stroke-width="1.6"/>
<line x1="846.0" y1="78" x2="846.0" y2="422" stroke="#2c2f36" stroke-width="1.6"/>
<line x1="872.0" y1="78" x2="872.0" y2="422" stroke="#2c2f36" stroke-width="1.6"/>
<line x1="898.0" y1="78" x2="898.0" y2="422" stroke="#2c2f36" stroke-width="1.6"/>
<line x1="924.0" y1="78" x2="924.0" y2="422" stroke="#2c2f36" stroke-width="1.6"/>
<line x1="950.0" y1="78" x2="950.0" y2="422" stroke="#2c2f36" stroke-width="1.6"/>
<line x1="976.0" y1="78" x2="976.0" y2="422" stroke="#2c2f36" stroke-width="1.6"/>
<line x1="1002.0" y1="78" x2="1002.0" y2="422" stroke="#2c2f36" stroke-width="1.6"/>
<line x1="1028.0" y1="78" x2="1028.0" y2="422" stroke="#2c2f36" stroke-width="1.6"/>
<line x1="1054.0" y1="78" x2="1054.0" y2="422" stroke="#2c2f36" stroke-width="1.6"/>
<line x1="1080.0" y1="78" x2="1080.0" y2="422" stroke="#2c2f36" stroke-width="1.6"/>
<line x1="1106.0" y1="78" x2="1106.0" y2="422" stroke="#2c2f36" stroke-width="1.6"/>
<line x1="1132.0" y1="78" x2="1132.0" y2="422" stroke="#2c2f36" stroke-width="1.6"/>
<line x1="1158.0" y1="78" x2="1158.0" y2="422" stroke="#2c2f36" stroke-width="1.6"/>
<line x1="1184.0" y1="78" x2="1184.0" y2="422" stroke="#2c2f36" stroke-width="1.6"/>
<line x1="1210.0" y1="78" x2="1210.0" y2="422" stroke="#2c2f36" stroke-width="1.6"/>
<line x1="1236.0" y1="78" x2="1236.0" y2="422" stroke="#2c2f36" stroke-width="1.6"/>
<line x1="1262.0" y1="78" x2="1262.0" y2="422" stroke="#2c2f36" stroke-width="1.6"/>
<line x1="1288.0" y1="78" x2="1288.0" y2="422" stroke="#2c2f36" stroke-width="1.6"/>
<line x1="1314.0" y1="78" x2="1314.0" y2="422" stroke="#2c2f36" stroke-width="1.6"/>
<line x1="1340.0" y1="78" x2="1340.0" y2="422" stroke="#2c2f36" stroke-width="1.6"/>
<line x1="1366.0" y1="78" x2="1366.0" y2="422" stroke="#2c2f36" stroke-width="1.6"/>
<line x1="1392.0" y1="78" x2="1392.0" y2="422" stroke="#2c2f36" stroke-width="1.6"/>
<line x1="1418.0" y1="78" x2="1418.0" y2="422" stroke="#2c2f36" stroke-width="1.6"/>
<line x1="1444.0" y1="78" x2="1444.0" y2="422" stroke="#2c2f36" stroke-width="1.6"/>
<circle cx="560.0" cy="272" r="1.50" fill="#3d4048"/>
<circle cx="560.0" cy="290" r="2.28" fill="#5a5e67"/>
<circle cx="560.0" cy="308" r="2.91" fill="#dcd7cd"/>
<circle cx="560.0" cy="326" r="3.01" fill="#dcd7cd"/>
<circle cx="560.0" cy="344" r="2.52" fill="#5a5e67"/>
<circle cx="560.0" cy="362" r="1.74" fill="#3d4048"/>
<circle cx="586.0" cy="254" r="1.50" fill="#3d4048"/>
<circle cx="586.0" cy="272" r="2.29" fill="#5a5e67"/>
<circle cx="586.0" cy="290" r="2.97" fill="#dcd7cd"/>
<circle cx="586.0" cy="308" r="3.12" fill="#dcd7cd"/>
<circle cx="586.0" cy="326" r="2.65" fill="#5a5e67"/>
<circle cx="586.0" cy="344" r="1.86" fill="#5a5e67"/>
<circle cx="612.0" cy="218" r="1.77" fill="#3d4048"/>
<circle cx="612.0" cy="236" r="2.60" fill="#5a5e67"/>
<circle cx="612.0" cy="254" r="3.18" fill="#dcd7cd"/>
<circle cx="612.0" cy="272" r="3.14" fill="#dcd7cd"/>
<circle cx="612.0" cy="290" r="2.51" fill="#5a5e67"/>
<circle cx="612.0" cy="308" r="1.68" fill="#3d4048"/>
<circle cx="638.0" cy="236" r="1.68" fill="#3d4048"/>
<circle cx="638.0" cy="254" r="2.53" fill="#5a5e67"/>
<circle cx="638.0" cy="272" r="3.21" fill="#dcd7cd"/>
<circle cx="638.0" cy="290" r="3.29" fill="#dcd7cd"/>
<circle cx="638.0" cy="308" r="2.72" fill="#5a5e67"/>
<circle cx="638.0" cy="326" r="1.86" fill="#3d4048"/>
<circle cx="664.0" cy="290" r="1.76" fill="#3d4048"/>
<circle cx="664.0" cy="308" r="2.64" fill="#5a5e67"/>
<circle cx="664.0" cy="326" r="3.32" fill="#dcd7cd"/>
<circle cx="664.0" cy="344" r="3.75" fill="#e07c4e"/>
<circle cx="664.0" cy="362" r="2.77" fill="#5a5e67"/>
<circle cx="664.0" cy="380" r="1.89" fill="#3d4048"/>
<circle cx="690.0" cy="290" r="1.79" fill="#3d4048"/>
<circle cx="690.0" cy="308" r="2.68" fill="#5a5e67"/>
<circle cx="690.0" cy="326" r="3.40" fill="#dcd7cd"/>
<circle cx="690.0" cy="344" r="3.48" fill="#dcd7cd"/>
<circle cx="690.0" cy="362" r="2.88" fill="#5a5e67"/>
<circle cx="690.0" cy="380" r="1.98" fill="#3d4048"/>
<circle cx="716.0" cy="272" r="1.99" fill="#3d4048"/>
<circle cx="716.0" cy="290" r="2.92" fill="#5a5e67"/>
<circle cx="716.0" cy="308" r="3.56" fill="#dcd7cd"/>
<circle cx="716.0" cy="326" r="3.51" fill="#dcd7cd"/>
<circle cx="716.0" cy="344" r="2.79" fill="#5a5e67"/>
<circle cx="716.0" cy="362" r="1.87" fill="#3d4048"/>
<circle cx="742.0" cy="218" r="1.66" fill="#3d4048"/>
<circle cx="742.0" cy="236" r="2.57" fill="#5a5e67"/>
<circle cx="742.0" cy="254" r="3.43" fill="#dcd7cd"/>
<circle cx="742.0" cy="272" r="3.73" fill="#dcd7cd"/>
<circle cx="742.0" cy="290" r="3.26" fill="#dcd7cd"/>
<circle cx="742.0" cy="308" r="2.35" fill="#5a5e67"/>
<circle cx="742.0" cy="326" r="1.48" fill="#3d4048"/>
<circle cx="768.0" cy="272" r="1.93" fill="#3d4048"/>
<circle cx="768.0" cy="290" r="2.90" fill="#5a5e67"/>
<circle cx="768.0" cy="308" r="3.67" fill="#dcd7cd"/>
<circle cx="768.0" cy="326" r="3.77" fill="#dcd7cd"/>
<circle cx="768.0" cy="344" r="3.12" fill="#5a5e67"/>
<circle cx="768.0" cy="362" r="2.15" fill="#3d4048"/>
<circle cx="768.0" cy="380" r="1.33" fill="#3d4048"/>
<circle cx="794.0" cy="308" r="1.32" fill="#3d4048"/>
<circle cx="794.0" cy="326" r="2.14" fill="#3d4048"/>
<circle cx="794.0" cy="344" r="3.15" fill="#5a5e67"/>
<circle cx="794.0" cy="362" r="3.84" fill="#dcd7cd"/>
<circle cx="794.0" cy="380" r="3.80" fill="#dcd7cd"/>
<circle cx="794.0" cy="398" r="3.04" fill="#5a5e67"/>
<circle cx="820.0" cy="290" r="1.96" fill="#3d4048"/>
<circle cx="820.0" cy="308" r="2.97" fill="#5a5e67"/>
<circle cx="820.0" cy="326" r="3.82" fill="#dcd7cd"/>
<circle cx="820.0" cy="344" r="3.99" fill="#dcd7cd"/>
<circle cx="820.0" cy="362" r="3.35" fill="#5a5e67"/>
<circle cx="820.0" cy="380" r="2.33" fill="#5a5e67"/>
<circle cx="820.0" cy="398" r="1.45" fill="#3d4048"/>
<circle cx="846.0" cy="254" r="1.35" fill="#3d4048"/>
<circle cx="846.0" cy="272" r="2.18" fill="#3d4048"/>
<circle cx="846.0" cy="290" r="3.23" fill="#5a5e67"/>
<circle cx="846.0" cy="308" r="4.01" fill="#dcd7cd"/>
<circle cx="846.0" cy="326" r="4.02" fill="#dcd7cd"/>
<circle cx="846.0" cy="344" r="3.25" fill="#5a5e67"/>
<circle cx="846.0" cy="362" r="2.20" fill="#3d4048"/>
<circle cx="846.0" cy="380" r="1.36" fill="#3d4048"/>
<circle cx="872.0" cy="200" r="1.78" fill="#3d4048"/>
<circle cx="872.0" cy="218" r="2.79" fill="#5a5e67"/>
<circle cx="872.0" cy="236" r="3.80" fill="#dcd7cd"/>
<circle cx="872.0" cy="254" r="4.23" fill="#dcd7cd"/>
<circle cx="872.0" cy="272" r="3.78" fill="#dcd7cd"/>
<circle cx="872.0" cy="290" r="2.76" fill="#5a5e67"/>
<circle cx="872.0" cy="308" r="1.76" fill="#3d4048"/>
<circle cx="898.0" cy="164" r="1.99" fill="#3d4048"/>
<circle cx="898.0" cy="182" r="3.07" fill="#5a5e67"/>
<circle cx="898.0" cy="200" r="4.02" fill="#dcd7cd"/>
<circle cx="898.0" cy="218" r="4.31" fill="#dcd7cd"/>
<circle cx="898.0" cy="236" r="3.71" fill="#5a5e67"/>
<circle cx="898.0" cy="254" r="2.63" fill="#5a5e67"/>
<circle cx="898.0" cy="272" r="1.64" fill="#3d4048"/>
<circle cx="924.0" cy="164" r="1.74" fill="#3d4048"/>
<circle cx="924.0" cy="182" r="2.76" fill="#5a5e67"/>
<circle cx="924.0" cy="200" r="3.85" fill="#5a5e67"/>
<circle cx="924.0" cy="218" r="4.41" fill="#dcd7cd"/>
<circle cx="924.0" cy="236" r="4.07" fill="#dcd7cd"/>
<circle cx="924.0" cy="254" r="3.06" fill="#5a5e67"/>
<circle cx="924.0" cy="272" r="1.97" fill="#3d4048"/>
<circle cx="950.0" cy="182" r="2.06" fill="#3d4048"/>
<circle cx="950.0" cy="200" r="3.18" fill="#5a5e67"/>
<circle cx="950.0" cy="218" r="4.19" fill="#dcd7cd"/>
<circle cx="950.0" cy="236" r="4.50" fill="#dcd7cd"/>
<circle cx="950.0" cy="254" r="3.90" fill="#5a5e67"/>
<circle cx="950.0" cy="272" r="2.77" fill="#5a5e67"/>
<circle cx="950.0" cy="290" r="1.74" fill="#3d4048"/>
<circle cx="976.0" cy="92" r="2.91" fill="#5a5e67"/>
<circle cx="976.0" cy="110" r="4.49" fill="#e07c4e"/>
<circle cx="976.0" cy="128" r="4.61" fill="#dcd7cd"/>
<circle cx="976.0" cy="146" r="4.23" fill="#dcd7cd"/>
<circle cx="976.0" cy="164" r="3.18" fill="#5a5e67"/>
<circle cx="976.0" cy="182" r="2.04" fill="#3d4048"/>
<circle cx="1002.0" cy="92" r="1.98" fill="#3d4048"/>
<circle cx="1002.0" cy="110" r="3.11" fill="#5a5e67"/>
<circle cx="1002.0" cy="128" r="4.23" fill="#dcd7cd"/>
<circle cx="1002.0" cy="146" r="4.71" fill="#dcd7cd"/>
<circle cx="1002.0" cy="164" r="4.23" fill="#dcd7cd"/>
<circle cx="1002.0" cy="182" r="3.10" fill="#5a5e67"/>
<circle cx="1002.0" cy="200" r="1.97" fill="#3d4048"/>
<circle cx="1028.0" cy="128" r="2.04" fill="#3d4048"/>
<circle cx="1028.0" cy="146" r="3.21" fill="#5a5e67"/>
<circle cx="1028.0" cy="164" r="4.35" fill="#dcd7cd"/>
<circle cx="1028.0" cy="182" r="4.81" fill="#dcd7cd"/>
<circle cx="1028.0" cy="200" r="4.28" fill="#dcd7cd"/>
<circle cx="1028.0" cy="218" r="3.12" fill="#5a5e67"/>
<circle cx="1028.0" cy="236" r="1.98" fill="#3d4048"/>
<circle cx="1054.0" cy="164" r="1.48" fill="#3d4048"/>
<circle cx="1054.0" cy="182" r="2.40" fill="#3d4048"/>
<circle cx="1054.0" cy="200" r="3.64" fill="#5a5e67"/>
<circle cx="1054.0" cy="218" r="4.67" fill="#dcd7cd"/>
<circle cx="1054.0" cy="236" r="4.85" fill="#dcd7cd"/>
<circle cx="1054.0" cy="254" r="4.06" fill="#5a5e67"/>
<circle cx="1054.0" cy="272" r="2.82" fill="#3d4048"/>
<circle cx="1054.0" cy="290" r="1.75" fill="#3d4048"/>
<circle cx="1080.0" cy="164" r="1.62" fill="#3d4048"/>
<circle cx="1080.0" cy="182" r="2.63" fill="#3d4048"/>
<circle cx="1080.0" cy="200" r="3.90" fill="#5a5e67"/>
<circle cx="1080.0" cy="218" r="4.86" fill="#dcd7cd"/>
<circle cx="1080.0" cy="236" r="4.88" fill="#dcd7cd"/>
<circle cx="1080.0" cy="254" r="3.97" fill="#5a5e67"/>
<circle cx="1080.0" cy="272" r="2.69" fill="#3d4048"/>
<circle cx="1080.0" cy="290" r="1.66" fill="#3d4048"/>
<circle cx="1106.0" cy="164" r="1.87" fill="#3d4048"/>
<circle cx="1106.0" cy="182" r="3.00" fill="#5a5e67"/>
<circle cx="1106.0" cy="200" r="4.29" fill="#5a5e67"/>
<circle cx="1106.0" cy="218" r="5.06" fill="#dcd7cd"/>
<circle cx="1106.0" cy="236" r="4.82" fill="#dcd7cd"/>
<circle cx="1106.0" cy="254" r="3.72" fill="#5a5e67"/>
<circle cx="1106.0" cy="272" r="2.44" fill="#3d4048"/>
<circle cx="1106.0" cy="290" r="1.50" fill="#3d4048"/>
<circle cx="1132.0" cy="182" r="2.04" fill="#3d4048"/>
<circle cx="1132.0" cy="200" r="3.25" fill="#5a5e67"/>
<circle cx="1132.0" cy="218" r="4.54" fill="#5a5e67"/>
<circle cx="1132.0" cy="236" r="5.19" fill="#dcd7cd"/>
<circle cx="1132.0" cy="254" r="4.79" fill="#dcd7cd"/>
<circle cx="1132.0" cy="272" r="3.60" fill="#5a5e67"/>
<circle cx="1132.0" cy="290" r="2.32" fill="#3d4048"/>
<circle cx="1158.0" cy="182" r="1.90" fill="#3d4048"/>
<circle cx="1158.0" cy="200" r="3.05" fill="#3d4048"/>
<circle cx="1158.0" cy="218" r="4.39" fill="#5a5e67"/>
<circle cx="1158.0" cy="236" r="5.24" fill="#dcd7cd"/>
<circle cx="1158.0" cy="254" r="5.04" fill="#dcd7cd"/>
<circle cx="1158.0" cy="272" r="3.93" fill="#5a5e67"/>
<circle cx="1158.0" cy="290" r="2.59" fill="#3d4048"/>
<circle cx="1158.0" cy="308" r="1.60" fill="#3d4048"/>
<circle cx="1184.0" cy="164" r="1.58" fill="#3d4048"/>
<circle cx="1184.0" cy="182" r="2.55" fill="#3d4048"/>
<circle cx="1184.0" cy="200" r="3.90" fill="#5a5e67"/>
<circle cx="1184.0" cy="218" r="5.08" fill="#dcd7cd"/>
<circle cx="1184.0" cy="236" r="5.36" fill="#dcd7cd"/>
<circle cx="1184.0" cy="254" r="4.56" fill="#5a5e67"/>
<circle cx="1184.0" cy="272" r="3.21" fill="#5a5e67"/>
<circle cx="1184.0" cy="290" r="2.00" fill="#3d4048"/>
<circle cx="1210.0" cy="146" r="2.02" fill="#3d4048"/>
<circle cx="1210.0" cy="164" r="3.25" fill="#5a5e67"/>
<circle cx="1210.0" cy="182" r="4.63" fill="#5a5e67"/>
<circle cx="1210.0" cy="200" r="5.46" fill="#dcd7cd"/>
<circle cx="1210.0" cy="218" r="5.18" fill="#dcd7cd"/>
<circle cx="1210.0" cy="236" r="3.99" fill="#5a5e67"/>
<circle cx="1210.0" cy="254" r="2.61" fill="#3d4048"/>
<circle cx="1210.0" cy="272" r="1.61" fill="#3d4048"/>
<circle cx="1236.0" cy="110" r="2.46" fill="#3d4048"/>
<circle cx="1236.0" cy="128" r="3.82" fill="#5a5e67"/>
<circle cx="1236.0" cy="146" r="5.12" fill="#dcd7cd"/>
<circle cx="1236.0" cy="164" r="5.59" fill="#dcd7cd"/>
<circle cx="1236.0" cy="182" r="4.92" fill="#dcd7cd"/>
<circle cx="1236.0" cy="200" r="3.54" fill="#5a5e67"/>
<circle cx="1236.0" cy="218" r="2.24" fill="#3d4048"/>
<circle cx="1262.0" cy="92" r="1.77" fill="#3d4048"/>
<circle cx="1262.0" cy="110" r="2.87" fill="#3d4048"/>
<circle cx="1262.0" cy="128" r="4.31" fill="#5a5e67"/>
<circle cx="1262.0" cy="146" r="5.46" fill="#dcd7cd"/>
<circle cx="1262.0" cy="164" r="5.60" fill="#dcd7cd"/>
<circle cx="1262.0" cy="182" r="4.63" fill="#5a5e67"/>
<circle cx="1262.0" cy="200" r="3.18" fill="#3d4048"/>
<circle cx="1262.0" cy="218" r="1.97" fill="#3d4048"/>
<circle cx="1288.0" cy="182" r="2.64" fill="#3d4048"/>
<circle cx="1288.0" cy="200" r="4.08" fill="#5a5e67"/>
<circle cx="1288.0" cy="218" r="5.37" fill="#dcd7cd"/>
<circle cx="1288.0" cy="236" r="5.77" fill="#dcd7cd"/>
<circle cx="1288.0" cy="254" r="4.99" fill="#5a5e67"/>
<circle cx="1288.0" cy="272" r="3.55" fill="#5a5e67"/>
<circle cx="1288.0" cy="290" r="2.22" fill="#3d4048"/>
<circle cx="1314.0" cy="146" r="2.12" fill="#3d4048"/>
<circle cx="1314.0" cy="164" r="3.41" fill="#5a5e67"/>
<circle cx="1314.0" cy="182" r="4.90" fill="#5a5e67"/>
<circle cx="1314.0" cy="200" r="5.82" fill="#dcd7cd"/>
<circle cx="1314.0" cy="218" r="5.59" fill="#dcd7cd"/>
<circle cx="1314.0" cy="236" r="4.35" fill="#5a5e67"/>
<circle cx="1314.0" cy="254" r="2.87" fill="#3d4048"/>
<circle cx="1314.0" cy="272" r="1.77" fill="#3d4048"/>
<circle cx="1340.0" cy="200" r="1.86" fill="#3d4048"/>
<circle cx="1340.0" cy="218" r="3.02" fill="#3d4048"/>
<circle cx="1340.0" cy="236" r="4.54" fill="#5a5e67"/>
<circle cx="1340.0" cy="254" r="5.75" fill="#dcd7cd"/>
<circle cx="1340.0" cy="272" r="5.89" fill="#dcd7cd"/>
<circle cx="1340.0" cy="290" r="4.87" fill="#5a5e67"/>
<circle cx="1340.0" cy="308" r="3.35" fill="#3d4048"/>
<circle cx="1340.0" cy="326" r="2.07" fill="#3d4048"/>
<circle cx="1366.0" cy="218" r="2.54" fill="#3d4048"/>
<circle cx="1366.0" cy="236" r="4.00" fill="#5a5e67"/>
<circle cx="1366.0" cy="254" r="5.45" fill="#dcd7cd"/>
<circle cx="1366.0" cy="272" r="6.08" fill="#dcd7cd"/>
<circle cx="1366.0" cy="290" r="5.46" fill="#dcd7cd"/>
<circle cx="1366.0" cy="308" r="4.02" fill="#5a5e67"/>
<circle cx="1366.0" cy="326" r="2.56" fill="#3d4048"/>
<circle cx="1392.0" cy="272" r="2.22" fill="#3d4048"/>
<circle cx="1392.0" cy="290" r="3.56" fill="#3d4048"/>
<circle cx="1392.0" cy="308" r="5.13" fill="#5a5e67"/>
<circle cx="1392.0" cy="326" r="6.11" fill="#dcd7cd"/>
<circle cx="1392.0" cy="344" r="5.88" fill="#dcd7cd"/>
<circle cx="1392.0" cy="362" r="4.58" fill="#5a5e67"/>
<circle cx="1392.0" cy="380" r="3.35" fill="#e07c4e"/>
<circle cx="1392.0" cy="398" r="1.86" fill="#3d4048"/>
<circle cx="1418.0" cy="272" r="2.38" fill="#3d4048"/>
<circle cx="1418.0" cy="290" r="3.79" fill="#5a5e67"/>
<circle cx="1418.0" cy="308" r="5.36" fill="#5a5e67"/>
<circle cx="1418.0" cy="326" r="6.25" fill="#dcd7cd"/>
<circle cx="1418.0" cy="344" r="5.87" fill="#dcd7cd"/>
<circle cx="1418.0" cy="362" r="4.48" fill="#5a5e67"/>
<circle cx="1418.0" cy="380" r="2.91" fill="#3d4048"/>
<circle cx="1418.0" cy="398" r="1.80" fill="#3d4048"/>
<circle cx="1444.0" cy="308" r="2.86" fill="#3d4048"/>
<circle cx="1444.0" cy="326" r="4.43" fill="#5a5e67"/>
<circle cx="1444.0" cy="344" r="5.88" fill="#dcd7cd"/>
<circle cx="1444.0" cy="362" r="6.36" fill="#dcd7cd"/>
<circle cx="1444.0" cy="380" r="5.54" fill="#5a5e67"/>
<circle cx="1444.0" cy="398" r="3.97" fill="#5a5e67"/>
</svg>
